# xmcd
#
# Track frame offsets:
#	150
#	14766
#	30362
#	41379
#	56307
#	83270
#	91632
#	130983
#	160975
#	173367
#	186030
#	207047
#	230423
#	239794
#	264443
#
# Disc length: 4159 seconds
#
# Revision: 1
# Processed by: cddbd v1.5.1PL0 Copyright (c) Steve Scherf et al.
# Submitted via: CDex 1.50Beta5
#
DISCID=ac103d0f
DTITLE=さまざまなアーティスト - 名曲アルバム
DYEAR=1900
DGENRE=Classical
TTITLE0=愛の挨拶 3:14
TTITLE1=「四季」より春〜第1楽章〜 3:27
TTITLE2=禁じられた遊び 2:26
TTITLE3=G線上のアリア 3:19
TTITLE4=アイネ・クライネ・ナハトムジーク〜第1楽章〜 5:59
TTITLE5=小犬のワルツ 1:51
TTITLE6=チゴイネルワイゼン 8:44
TTITLE7=ペルシャの市場にて 6:39
TTITLE8=白鳥の湖より情景 2:45
TTITLE9=白鳥 2:48
TTITLE10=愛の夢 第3番 4:40
TTITLE11=オンブラ・マイ.フ 5:11
TTITLE12=トルコ行進曲 2:04
TTITLE13=月の光 5:28
TTITLE14=美しく青きドナウ 10:33
EXTD=
EXTT0=
EXTT1=
EXTT2=
EXTT3=
EXTT4=
EXTT5=
EXTT6=
EXTT7=
EXTT8=
EXTT9=
EXTT10=
EXTT11=
EXTT12=
EXTT13=
EXTT14=
PLAYORDER=
